<?xml version="1.0"?>
<svg width="1024" height="1024" xmlns="http://www.w3.org/2000/svg" xmlns:svg="http://www.w3.org/2000/svg" class="icon" version="1.1">

 <g class="layer">
  <title>Layer 1</title>
  <path d="m512,929.96c-230.4,0 -417.96,-187.56 -417.96,-417.96s187.56,-417.96 417.96,-417.96s417.96,187.56 417.96,417.96s-187.56,417.96 -417.96,417.96zm0,-794.12c-207.41,0 -376.16,168.75 -376.16,376.16s168.75,376.16 376.16,376.16s376.16,-168.75 376.16,-376.16s-168.75,-376.16 -376.16,-376.16z" fill="#ff5656" id="svg_1"/>
  <path d="m355.27,689.63c-5.23,0 -10.45,-2.09 -14.63,-6.27c-8.36,-8.36 -8.36,-21.42 0,-29.78l313.47,-313.47c8.36,-8.35 21.42,-8.35 29.78,0c8.35,8.36 8.35,21.42 0,29.78l-313.47,313.47c-4.71,4.18 -9.93,6.27 -15.15,6.27z" fill="#ff0000" id="svg_2"/>
  <path d="m668.73,689.63c-5.22,0 -10.44,-2.09 -14.62,-6.27l-313.47,-313.47c-8.36,-8.36 -8.36,-21.42 0,-29.78c8.36,-8.35 21.42,-8.35 29.78,0l313.47,313.47c8.35,8.36 8.35,21.42 0,29.78c-4.71,4.18 -9.93,6.27 -15.16,6.27z" fill="#ff0000" id="svg_3"/>
 </g>
</svg>